<svg xmlns="http://www.w3.org/2000/svg" width="526.667" height="162.667" version="1.0" viewBox="0 0 395 122" fill="#7240b2"><path d="M344 17.7c-3 7.2-12.5 32.9-14.7 39.8-.7 2.2-2.8 4-8.1 7.2-4 2.3-7.2 4.1-7.2 3.9 0-.2.7-2.3 1.5-4.6 1.9-5.4 1.9-8.4 0-10-1.2-1-2.5-.3-7.6 4.2-6.5 5.9-16.6 12.4-17.5 11.5-.3-.3.4-2.4 1.7-4.7 1.8-3.2 2.1-4.5 1.3-5.8-1.8-2.8-3.8-1.9-6.1 2.8-2.5 4.9-3 9.9-1.1 11.8 2.9 2.9 10.3.9 17.6-4.5 1.8-1.4 3.5-2.3 3.8-2 1.4 1.4-5.3 12.6-11.3 19.1-10.4 11.2-14.1 20.8-9.5 24.9 1.7 1.6 2 1.6 3.9-.6 2.9-3.1 10.4-15 14.1-22.2 2.2-4.4 5-7.7 10.6-12.4 10.8-9.2 11.6-9.6 11.6-7.4 0 1 .7 2.9 1.6 4.1 1.9 2.8 6.3 2.9 12.2.2 4-1.8 4.2-1.8 4.2-.1 0 2.5 3.2 5.1 6.2 5.1 1.4 0 4.3-.7 6.4-1.6C362.9 74.2 379 64 379 62.9c0-2.4-3.3-1.6-11.1 2.5-9.4 5-16.9 8-16.9 6.7 0-.5 2.4-2.3 5.4-4 6.3-3.5 7.8-6.4 4.8-9.3-2.6-2.7-5.7-1.9-11.3 2.8-4.2 3.5-10.4 6.7-15.5 8-1.9.5-2.4.2-2.4-1.3 0-2.1 8.7-26.7 15.4-43.2 4.3-10.7 4.5-11.6 2.9-13.3-.9-1-1.9-1.8-2.4-1.8-.4 0-2.2 3.5-3.9 7.7zM62.5 20.6c-17.4 3.9-37.7 14.7-42.6 22.8-2.4 4-2.4 7.3.1 8.6 1.7.9 2.1.6 3.3-2.3 3.2-7.6 20.6-18.1 38.1-23.2 9.4-2.7 14.9-3.1 19.1-1.5 5.5 2.1 4.1 7.3-4.6 15.9-6.2 6.3-16.5 11.9-25.6 14.2-2.9.7-5.3 1.5-5.3 1.8.1 2.2 2.6 3.5 8 4.2 7.5.9 10.6 3.3 9.6 7.4-1.1 4.5-8.1 11-15.5 14.4-7.4 3.4-10.7 4-15.9 2.7-3-.7-3.3-.6-3 1 1 5.3 13.5 5.7 23.3.9 7.4-3.6 14.3-9.8 15.3-13.9 1.2-4.5-.3-9.7-3.6-12.7l-2.9-2.6 6.6-3.3c8.6-4.4 19.5-15.1 21-20.5.9-3.2.8-4.5-.7-7.4-.9-1.9-2.9-4.3-4.3-5.3-3.5-2.6-11.9-3.1-20.4-1.2zm121.1 5.2-3.5 6.9-9.8.6c-9.2.6-20.9 2.4-22.5 3.3-1.2.7.2 3.3 2.1 3.9.9.3 6.2-.2 11.7-1 5.4-.8 11.4-1.5 13.2-1.5h3.2l-4.1 8.2c-4.8 9.6-13.2 23-15.6 25-1.4 1.1-1.6 1.1-1-.4 2.1-5.8 2.8-10 1.6-11.4-.6-.8-1.5-1.4-2-1.4s-4.6 3.2-9.1 7.1c-7.8 6.7-10.9 7.7-7.4 2.4 2-3 2-4.9.2-6.4-1.2-1-2.7-.3-7.8 3.5-5.9 4.4-11.5 7.4-13.7 7.4-.6 0-.5-1.8.4-4.6 1.2-4.2 1.2-4.7-.6-6.5-1-1-2.5-1.6-3.2-1.3-.8.3-2-.2-2.7-1.1-2.3-2.7-7.5-1.9-11.2 1.9C97.2 65.1 78 74.5 78 72.1c0-.5 2.4-2.3 5.4-4 6.1-3.4 7.7-6.2 5-9.2-2.1-2.3-3.6-2.4-7.5-.3C77.2 60.4 72 68.4 72 72c0 3.4 2.8 6 6.4 6 1.4 0 5.8-1.6 9.6-3.4l7-3.5v2.4c0 1.3.8 2.9 1.8 3.4 2.1 1.1 6.2-1 12.2-6.2l3.4-3 .7 2.8c1.9 6.8 7.4 8.3 14.4 4 4.8-2.9 5.5-3 5.5-.7 0 5.5 6.6 5.6 13.8.2 5.1-3.9 5.2-3.9 5.2-1.6 0 2.4 4.1 6.6 6.3 6.6.6 0 2.8-1.9 5-4.2 3.4-3.6 3.9-3.9 3.3-1.8-.3 1.4-.9 6.3-1.3 11-.5 7.3-.3 8.8 1.1 10.3 2.6 2.6 3.6 1.2 3.6-4.7 0-10.7 3.2-23.5 10.9-43.4l3.2-8.2h10.8c5.8 0 12.9.6 15.6 1.4 2.8.7 5.7 1.5 6.5 1.7 3.5.9 1.1-2.8-3.1-4.9-3.9-1.9-14.7-3.6-26.1-4.2-.4 0 .2-2 1.4-4.5 1.7-3.4 2-5 1.2-6.2-2-3.2-3.3-2.4-6.8 4.5zM108 63.4c0 .2-.8 1-1.7 1.7-1.6 1.3-1.7 1.2-.4-.4 1.3-1.6 2.1-2.1 2.1-1.3z"/><path d="m289 26-3.4 7h-5.5c-3.1 0-10.1.7-15.6 1.5S254.2 36 253.8 36c-1.3 0-.9 2.7.6 3.9 1 .9 4.6.7 14.5-.6 7.2-.9 13.3-1.4 13.7-1.1 1.5 1.6-17.9 26.4-19.7 25.2-1.5-.9-1-3.6.8-4.9 1.5-1.1 1.5-1.5.3-2.9-.7-1-2.4-1.6-3.9-1.4-2.1.2-2.7.9-2.9 3.6-.2 1.9.3 4.1 1.1 5 2.7 3.2 2.7 4 .1 7.1-3.3 3.9-3 9 .5 10.8 1.7.8 3 .9 4.4.2 2.2-1.2 5-7.5 4.4-9.8-.2-.9 1.2-3.6 3.3-6l3.7-4.3-1.7 8c-1 4.4-2.1 11.4-2.5 15.7-.6 6.5-.4 7.9 1.1 9.6.9 1 2 1.9 2.4 1.9.4 0 1.1-3.9 1.5-8.8.9-11.2 4.2-23.9 9.6-37.7l4.4-11 10.5-.3c9.6-.2 16.4.8 22.3 3.3 1.3.5 1.7.2 1.7-1.4 0-3.4-7.6-6.1-19.8-7.1-5.7-.4-10.6-1-10.8-1.3-.3-.3.4-2.3 1.5-4.6 1.2-2.2 2.1-4.2 2.1-4.5 0-.7-3.1-3.6-3.9-3.6-.4 0-2.2 3.1-4.1 7zM42.6 45.2c-5.3 11.1-7.4 18.5-8.3 29.3-.5 6.6-.3 8.3 1 9.4 2.6 2.1 3.4.6 4-7.1.8-10.3 3-17.9 8.1-28.3 4.1-8.3 4.3-9.1 2.9-10.8-.9-.9-2-1.7-2.4-1.7-.5 0-2.9 4.2-5.3 9.2zm162.3 10.4C200.1 60.8 187 70 184.5 70c-.4 0 .5-2.1 1.9-4.7 2.6-4.6 2.6-4.7.7-6.6-2.4-2.4-3.3-1.8-6 3.8-5.7 12.1 1.2 16.3 14 8.6 3.5-2.1 6.6-3.7 6.8-3.6 1.1 1.1-5.8 12.7-10.9 18.2-7 7.4-12 15.6-12 19.6 0 3.8 1.7 6.7 3.8 6.7 1.8 0 9.1-10.4 15.6-22.2 4-7.2 12.9-16.1 22.3-22.4 5.2-3.4 6.3-5.6 3.1-6.2-.8-.2-4.6 1.5-8.4 3.7-3.8 2.1-7 3.8-7.2 3.7-.1-.2.7-2.8 1.7-5.8 1.7-5 1.8-5.8.5-7.7-1.9-2.7-2.5-2.6-5.5.5z"/></svg>