<svg xmlns="http://www.w3.org/2000/svg" width="400" height="431.915"><g fill-rule="evenodd"><path fill="#234424" d="M0 215.8v215.8h205.6l.011-47.9c.006-26.345.001-69.707-.011-96.361-.023-52.377-.126-49.739 1.949-49.739 1.709 0 1.651-3.44 1.651 97.48v96.52H400V0H209.2v185.585l-.971.243c-.534.135-1.337.128-1.785-.014l-.814-.258-.016-82.478c-.009-45.363-.016-87.113-.015-92.778L205.6 0H0v215.8m306.2-89.857c1.1.212 3.35.601 5 .864 1.65.262 5.678.998 8.952 1.635 7.919 1.541 10.8 1.522 15.281-.099 6.646-2.405 7.664-1.101 5.108 6.546l-1.507 4.511-.036 12.937-.035 12.937-.981.754c-3.212 2.468-5.182.636-5.182-4.818 0-13.828-8.523-23.073-25.6-27.767-13.06-3.59-30.032-.127-38.046 7.762-10.427 10.263-6.44 24.651 9.824 35.455 4.418 2.935 10.433 6.516 12.745 7.588 1.607.744 2.162 1.179 1.8 1.408-1.072.68-40.632.415-41.207-.275a46.817 46.817 0 0 0-1.136-1.3c-4.463-4.898-6.974-12.366-6.956-20.681.044-19.665 15.894-34.288 40.776-37.622 4.436-.594 17.809-.49 21.2.165m-193 1.376c16.883 3.117 25.737 7.612 33.248 16.881 8.522 10.516 9.155 30.206 1.301 40.502l-.999 1.31-11.875-.106c-13.282-.119-12.397.114-11.083-2.906 3.718-8.544 2.884-26.089-1.701-35.792-2.145-4.54-7.934-9.192-14.091-11.324-8.168-2.83-26.186-3.045-30.32-.362-2.353 1.526-2.588 6.02-2.487 47.584l.007 2.906-11.9-.106-11.9-.106-.209-21.8c-.24-25.146-.18-24.752-4.382-28.736-3.823-3.626-6.263-4.464-13.001-4.464-4.238 0-4.613-.062-5.028-.837-.639-1.194-.152-2.639 1.021-3.029 2.024-.674 79.606-.315 83.399.385m121.842 67.152c.78.78 1.322 5.929.624 5.929-.243 0-.912-.993-1.486-2.206-1.787-3.776-5.835-4.72-8.433-1.966-2.682 2.845-1.602 5.885 3.11 8.753 3.818 2.324 7.118 4.762 7.131 5.27.007.248.282.675.612.949.775.643.813 5.115.06 6.919-1.599 3.826-5.522 5.315-11.404 4.328-4.898-.822-4.887-.812-4.981-4.454-.088-3.43.492-4.022 1.477-1.507 1.584 4.045 5.552 5.878 9.804 4.528.984-.312 2.451-3.083 2.43-4.589-.019-1.347-2.16-4.825-2.97-4.825-.148 0-.859-.45-1.58-1-.722-.55-1.42-1-1.554-1-.407 0-4.014-2.465-5.191-3.547-3.453-3.175-2.178-9.117 2.509-11.695 1.836-1.01 8.8-.93 9.842.113m20.676-.271h11.117l.207 1c.113.55.375 1.313.582 1.695.458.846.502 3.905.056 3.905-.176 0-.693-.766-1.148-1.703-1.191-2.452-3.563-3.575-7.213-3.416l-2.719.119-.106 11.762c-.114 12.589-.019 13.238 1.935 13.238 1.083 0 1.971.434 1.971.963 0 .667-12.065.641-12.288-.027-.085-.255.427-.591 1.142-.748 2.725-.598 2.737-.662 2.636-13.588l-.09-11.6-2.559-.121c-1.427-.067-2.746.066-2.98.3-.232.232-.732.421-1.112.421-.381 0-.933.242-1.229.537-.295.295-.936.75-1.424 1.012-.488.261-1.164 1.009-1.502 1.663-1.529 2.957-1.801.907-.394-2.972.55-1.517 1-2.841 1-2.943 0-.102.675-.031 1.5.158.825.19 6.503.345 12.618.345m-199.478.837c5.238 1.862 4.939 9.428-.444 11.234l-1.196.401 2.322 1.139c5.021 2.465 6.57 6.763 3.828 10.623-2.488 3.503-4.235 3.974-14.317 3.856-7.549-.087-10.233-.588-6.705-1.25 2.858-.536 2.872-.601 2.872-13.065 0-12.34.078-11.976-2.7-12.534-2.83-.568-.72-1.027 5.2-1.131 7.531-.132 8.991-.036 11.14.727m29.68-.557c.264.264.48 1.063.48 1.776 0 .713.18 1.408.4 1.544.444.274.546 1.921.144 2.323-.141.141-.749-.521-1.352-1.47-1.791-2.825-9.901-4.49-11.643-2.392-.562.677-.901 7.557-.486 9.839.513 2.815 8.512.908 8.531-2.033.004-.567.202-.868.506-.767.752.25.792 9.1.042 9.1-.298 0-.542-.395-.542-.878 0-2.62-7.877-4.855-8.535-2.422-.577 2.132-.214 10.037.499 10.858 2.139 2.466 9.939.673 13.477-3.098 1.502-1.6 1.746-1.738 1.752-.984.004.482-.159.979-.362 1.105-.203.125-.488.768-.633 1.428-.886 4.032-.369 3.879-12.897 3.83-9.394-.036-11.982-.332-9.266-1.058.569-.152 1.514-.591 2.1-.975l1.065-.698v-11.292c0-12.542.05-12.306-2.726-12.861-3.104-.621-.614-.948 8.026-1.055 5.115-.064 9.669-.157 10.12-.208.451-.05 1.036.124 1.3.388m21.152 2.52c.552 1.54 1.789 5.032 2.749 7.761.96 2.728 2.023 5.545 2.362 6.26.339.715.617 1.59.617 1.945s.168.957.374 1.339c.849 1.575 1.626 3.449 1.626 3.921 0 .704 2.311 2.574 3.182 2.574.396 0 .932.255 1.19.566.724.873-.32 1.019-6.28.877-5.161-.123-6.602-.37-5.049-.866 2.349-.751 2.557-.944 2.557-2.374 0-.778-.158-1.726-.352-2.108-.193-.382-.67-1.685-1.059-2.895-1.068-3.32-.969-3.264-5.35-2.976-4.481.296-4.317.161-5.857 4.796-1.282 3.858-1.156 4.528.973 5.139 2.587.742 1.075 1.242-3.576 1.183-4.751-.061-5.743-.433-3.408-1.277 1.381-.5 3.341-3.07 4.029-5.287.168-.538.628-1.698 1.024-2.578.395-.88 1.294-3.04 1.997-4.8.702-1.76 1.705-4.134 2.228-5.275.523-1.142.951-2.209.951-2.373 0-.163.578-1.712 1.285-3.441 1.662-4.065 2.363-4.085 3.787-.111m41.103-2.164c.224.212-.13.455-.88.605-2.573.515-2.671.879-2.922 10.9-.237 9.472-.335 10.147-1.817 12.516-3.716 5.939-17.41 4.643-18.731-1.773-.1-.486-.302-1.514-.449-2.284-.147-.77-.382-5.18-.522-9.8-.267-8.837-.373-9.396-1.778-9.406-1.284-.009-2.257-.673-1.444-.985 1.026-.394 10.762-.043 10.869.391.055.22-.482.456-1.192.525-1.979.191-2.242 1.773-2.017 12.164.215 9.957.556 11.046 3.982 12.701 1.832.885 6.473 1.143 6.941.385.145-.233.678-.582 1.185-.775 2.921-1.111 3.8-4.455 3.8-14.467 0-8.12-.393-9.933-2.156-9.933-1.018 0-1.648-.546-1.294-1.12.262-.423 7.943-.098 8.425.356m29.614.764c.14.77.341 2.3.448 3.4l.195 2-.916-1.071a31.499 31.499 0 0 1-1.592-2.043c-1.118-1.609-3.175-2.338-6.223-2.204L167 195.8l-.106 11.561c-.119 12.93-.073 13.182 2.503 13.665 1.238.232 1.925.875 1.103 1.031-1.233.235-11.766.15-12.166-.098-.524-.324 1.121-1.159 2.282-1.159 1.715 0 3.109-23.235 1.49-24.854-1.502-1.502-8.127.421-10.13 2.942-1.162 1.462-1.555 1.743-1.746 1.245-.236-.614 1.064-4.682 1.766-5.528.214-.258 4.924-.405 12.938-.405h12.602l.253 1.4m13.551-.795c.187.174-.038.436-.5.582-2.184.694-1.856 1.891 2.209 8.069 2.593 3.939 3.007 4.158 4.225 2.24.509-.802 1.196-1.852 1.526-2.334 3.688-5.382 4.306-7.317 2.476-7.746-2.038-.477-.688-1.027 3.019-1.229 4.198-.228 6.667.481 3.722 1.07-1.539.307-3.983 2.573-5.208 4.826-.453.835-1.981 3.137-3.394 5.117l-2.57 3.6-.016 5.4c-.019 6.094.009 6.181 2.071 6.56 4.831.889-4.118 1.834-10.4 1.099-.89-.105-.529-.859.411-.859.9 0 2.613-.956 3.183-1.777 1.468-2.113-.223-12.6-2.154-13.356-.187-.074-.34-.376-.34-.672 0-.296-.229-.776-.51-1.066-.28-.291-1.359-1.902-2.397-3.58-1.982-3.202-3.716-4.83-5.651-5.308-2.157-.532-.486-1.01 3.964-1.135 4.563-.128 5.759-.034 6.334.499m89.424-.249c.371.447.223.64-.751.98-1.377.48-1.511 1.294-.484 2.936.369.589 1.479 2.381 2.467 3.983.988 1.601 2.208 3.356 2.712 3.9l.916.988.688-.968c.378-.533.868-1.277 1.088-1.655.22-.377 1.439-2.22 2.709-4.095 2.438-3.601 2.565-4.806.536-5.108-2.821-.421-.764-1.117 3.298-1.117 4.567 0 5.813.413 3.561 1.179-1.232.419-3.904 2.515-3.904 3.062 0 .139-.99 1.569-2.2 3.176-1.21 1.608-2.2 3.041-2.2 3.184 0 .143-.72 1.266-1.6 2.495l-1.6 2.234v4.886c0 5.401.096 5.63 2.686 6.384 2.879.838 1.527 1.2-4.486 1.2-5.941 0-7.422-.349-5.094-1.2 2.767-1.012 2.694-.829 2.694-6.74 0-4.92-.074-5.478-.84-6.328-.463-.512-.965-1.202-1.116-1.532-.712-1.551-4.934-7.847-6.325-9.431-.661-.753-1.529-1.369-1.928-1.369s-1.01-.109-1.358-.243c-1.608-.617-.23-.943 4.467-1.058 2.805-.069 5.213-.164 5.351-.212.138-.048.459.163.713.469m66.266.003c.543.205 1.967 5.378 1.585 5.759-.156.155-.636-.168-1.066-.718-.43-.55-1.16-1.474-1.623-2.054-1.094-1.371-3.111-1.946-6.823-1.946-4.068 0-4.103.054-4.103 6.361V207l2.817.116c3.362.138 5.435-.904 5.782-2.908.467-2.698 1.001-.782 1.001 3.592 0 4.16-.594 6.579-.921 3.754-.26-2.24-1.991-3.204-5.52-3.072L335 208.6l-.111 5.209c-.147 6.88-.212 6.791 4.979 6.791 4.489 0 5.617-.468 9.032-3.746 2.053-1.97 2.409-1.669 1.147.971-.414.866-.879 2.16-1.032 2.875-.153.715-.489 1.32-.747 1.345-1.975.192-20.832.104-21.376-.098-.649-.243.821-1.147 1.864-1.147 1.812 0 2.054-1.456 2.03-12.24-.026-12.137-.001-12.036-3.386-13.523-1.605-.706 17.773-1.177 19.63-.478m-34.213.441c.008.22-.397.459-.901.531-2.186.311-2.297.927-2.307 12.753-.011 13.358-.24 12.89 6.141 12.541 3.402-.187 5.407-1.465 7.022-4.477 1.704-3.178 2.374-.251.891 3.894l-.695 1.942-10.751.008c-7.975.006-10.791-.115-10.909-.469-.094-.281.416-.585 1.24-.74 2.82-.529 2.838-.606 2.97-12.616.132-11.945.1-12.116-2.337-12.772-.883-.238-1.496-.609-1.363-.825.327-.528 10.979-.305 10.999.23m-265.217.991c-.839.529-1.14 9.547-.336 10.057 1.833 1.162 6.57-.143 7.619-2.099 2.689-5.013-2.67-10.869-7.283-7.958m55.594 5.409c-1.359 3.479-2.794 7.499-2.794 7.827 0 .475 6.279.493 6.572.019.255-.413-.379-2.583-1.2-4.108-.315-.584-.572-1.509-.572-2.055 0-.547-.346-1.419-.769-1.939l-.769-.944-.468 1.2M47.5 208.008c-.976.602-1.046 10.119-.085 11.492 1.153 1.647 5.493 2.049 6.903.639.287-.287.742-.66 1.011-.83 3.009-1.897 2.857-8.284-.247-10.386-1.506-1.021-6.443-1.616-7.582-.915m26.8 29.844.9.241.025 14.454c.041 23.477.673 25.584 8.573 28.605 4.855 1.856 22.715 2.67 28.802 1.313 12.453-2.777 20.46-9.133 24.021-19.065.394-1.1.84-2.18.992-2.4 1.072-1.562 2.387-11.485 2.387-18.021 0-5.998-1.549-5.379 13.459-5.379 14.991 0 13.741-.515 13.741 5.663 0 9.214-1.266 14.89-5.206 23.337-1.401 3.005-8.754 11.8-9.865 11.8-.095 0-1.198.695-2.451 1.544-5.341 3.621-14.283 6.894-23.078 8.445-9.519 1.68-11.261 1.737-54.6 1.806-45.008.071-43.6.134-43.6-1.955 0-1.688.85-1.951 6.51-2.015 7.584-.086 11.694-2.465 14.738-8.531L51 275l.119-18.182c.08-12.204.261-18.353.549-18.7.451-.544 20.707-.782 22.632-.266m175.052.648c.314.495.701 1.703.859 2.685 2.297 14.236 19.097 34.318 34.138 40.806 13.779 5.944 32.051 2.428 44.141-8.492 2.46-2.222 5.51-5.854 5.51-6.561 0-.144.437-1.185.972-2.315 3.718-7.859 2.799-15.167-3.007-23.92-2.087-3.146-2.237-3.103 10.783-3.103 13.78 0 12.745-.438 12.931 5.477.704 22.392-13.459 39.879-37.679 46.522-.99.272-2.25.642-2.8.823-2.003.661-10.577 1.578-14.746 1.578-12.717 0-22.329-2.868-34.47-10.284-5.612-3.428-8.865-3.858-14.917-1.971-7.27 2.266-7.019 2.846-6.781-15.674.105-8.205.008-17.051-.219-20.071-.472-6.247-.404-6.4 2.8-6.4 1.55 0 2.023.172 2.485.9"/><path fill="#fff" d="m205.611 92.796.018 92.796.957.24c.526.132 1.329.122 1.785-.023l.829-.263V0h-3.607l.018 92.796M285 125.778c-16.386 2.195-30.545 10.338-36.511 20.997-5.898 10.537-5.885 23.7.034 33.425 1.151 1.892 2.078 3.246 2.657 3.881.341.374.852.959 1.136 1.3.575.69 40.135.955 41.207.275.362-.229-.193-.664-1.8-1.408-2.312-1.072-8.327-4.653-12.745-7.588-16.264-10.804-20.251-25.192-9.824-35.455 8.014-7.889 24.986-11.352 38.046-7.762 17.077 4.694 25.6 13.939 25.6 27.767 0 5.454 1.97 7.286 5.182 4.818l.981-.754.035-12.937.036-12.937 1.507-4.511c2.556-7.647 1.538-8.951-5.108-6.546-4.481 1.621-7.362 1.64-15.281.099-3.274-.637-7.302-1.373-8.952-1.635-1.65-.263-3.9-.652-5-.864-3.391-.655-16.764-.759-21.2-.165m-255.199 1.156c-1.173.39-1.66 1.835-1.021 3.029.415.775.79.837 5.028.837 6.738 0 9.178.838 13.001 4.464 4.202 3.984 4.142 3.59 4.382 28.736l.209 21.8 11.9.106 11.9.106-.007-2.906c-.101-41.564.134-46.058 2.487-47.584 3.284-2.131 16.716-2.529 26.12-.774 17.001 3.173 25.168 18.977 21.629 41.852-.572 3.691-.734 4.324-1.637 6.4-1.314 3.02-2.199 2.787 11.083 2.906l11.875.106.999-1.31c7.854-10.296 7.221-29.986-1.301-40.502-7.511-9.269-16.365-13.764-33.248-16.881-3.793-.7-81.375-1.059-83.399-.385M225.2 194.358c-4.687 2.578-5.962 8.52-2.509 11.695 1.177 1.082 4.784 3.547 5.191 3.547.134 0 .832.45 1.554 1 .721.55 1.432 1 1.58 1 .81 0 2.951 3.478 2.97 4.825.021 1.506-1.446 4.277-2.43 4.589-4.252 1.35-8.22-.483-9.804-4.528-.985-2.515-1.565-1.923-1.477 1.507.094 3.642.083 3.632 4.981 4.454 5.882.987 9.805-.502 11.404-4.328.753-1.804.715-6.276-.06-6.919-.33-.274-.605-.701-.612-.949-.013-.508-3.313-2.946-7.131-5.27-4.712-2.868-5.792-5.908-3.11-8.753 2.598-2.754 6.646-1.81 8.433 1.966 1.426 3.016 1.983 2.874 1.717-.437-.293-3.661-.614-3.902-5.397-4.049-3.249-.1-4.134.009-5.3.65m16.4-.661c0 .102-.45 1.426-1 2.943-1.407 3.879-1.135 5.929.394 2.972.338-.654 1.014-1.402 1.502-1.663.488-.262 1.129-.717 1.424-1.012.296-.295.848-.537 1.229-.537.38 0 .88-.189 1.112-.421.234-.234 1.553-.367 2.98-.3l2.559.121.09 11.6c.101 12.926.089 12.99-2.636 13.588-.715.157-1.227.493-1.142.748.223.668 12.288.694 12.288.027 0-.529-.888-.963-1.971-.963-1.954 0-2.049-.649-1.935-13.238l.106-11.762 2.719-.119c3.65-.159 6.022.964 7.213 3.416.455.937.972 1.703 1.148 1.703.446 0 .402-3.059-.056-3.905-.207-.382-.469-1.145-.582-1.695l-.207-1h-11.117c-6.115 0-11.793-.155-12.618-.345-.825-.189-1.5-.26-1.5-.158m-196.5.613c-5.92.104-8.03.563-5.2 1.131 2.778.558 2.7.194 2.7 12.534 0 12.464-.014 12.529-2.872 13.065-3.528.662-.844 1.163 6.705 1.25 10.082.118 11.829-.353 14.317-3.856 2.742-3.86 1.193-8.158-3.828-10.623l-2.322-1.139 1.196-.401c5.383-1.806 5.682-9.372.444-11.234-2.149-.763-3.609-.859-11.14-.727m29.4-.01c-8.64.107-11.13.434-8.026 1.055 2.776.555 2.726.319 2.726 12.861v11.292l-1.065.698c-.586.384-1.531.823-2.1.975-2.716.726-.128 1.022 9.266 1.058 12.528.049 12.011.202 12.897-3.83.145-.66.43-1.303.633-1.428.203-.126.366-.623.362-1.105-.006-.754-.25-.616-1.752.984-3.538 3.771-11.338 5.564-13.477 3.098-.713-.821-1.076-8.726-.499-10.858.658-2.433 8.535-.198 8.535 2.422 0 .483.244.878.542.878.75 0 .71-8.85-.042-9.1-.304-.101-.502.2-.506.767-.019 2.941-8.018 4.848-8.531 2.033-.415-2.282-.076-9.162.486-9.839 1.742-2.098 9.852-.433 11.643 2.392.603.949 1.211 1.611 1.352 1.47.402-.402.3-2.049-.144-2.323-.22-.136-.4-.831-.4-1.544 0-1.521-.635-2.293-1.78-2.164-.451.051-5.005.144-10.12.208m28.785 2.811c-.707 1.729-1.285 3.278-1.285 3.441 0 .164-.428 1.231-.951 2.373-.523 1.141-1.526 3.515-2.228 5.275-.703 1.76-1.602 3.92-1.997 4.8-.396.88-.856 2.04-1.024 2.578-.688 2.217-2.648 4.787-4.029 5.287-2.335.844-1.343 1.216 3.408 1.277 4.651.059 6.163-.441 3.576-1.183-2.129-.611-2.255-1.281-.973-5.139 1.54-4.635 1.376-4.5 5.857-4.796 4.381-.288 4.282-.344 5.35 2.976.389 1.21.866 2.513 1.059 2.895.194.382.352 1.33.352 2.108 0 1.43-.208 1.623-2.557 2.374-1.553.496-.112.743 5.049.866 5.96.142 7.004-.004 6.28-.877-.258-.311-.794-.566-1.19-.566-.871 0-3.182-1.87-3.182-2.574 0-.472-.777-2.346-1.626-3.921-.206-.382-.374-.984-.374-1.339s-.278-1.23-.617-1.945c-.339-.715-1.402-3.532-2.362-6.26-3.668-10.425-3.723-10.556-4.501-10.678-.595-.092-1.013.53-2.035 3.028m36.465-2.631c-.354.574.276 1.12 1.294 1.12 1.763 0 2.156 1.813 2.156 9.933 0 10.012-.879 13.356-3.8 14.467-.507.193-1.04.542-1.185.775-.468.758-5.109.5-6.941-.385-3.426-1.655-3.767-2.744-3.982-12.701-.225-10.391.038-11.973 2.017-12.164.71-.069 1.247-.305 1.192-.525-.107-.434-9.843-.785-10.869-.391-.813.312.16.976 1.444.985 1.405.01 1.511.569 1.778 9.406.14 4.62.375 9.03.522 9.8.147.77.349 1.798.449 2.284 1.321 6.416 15.015 7.712 18.731 1.773 1.482-2.369 1.58-3.044 1.817-12.516.251-10.021.349-10.385 2.922-10.9.75-.15 1.104-.393.88-.605-.482-.454-8.163-.779-8.425-.356m12.246.125c-.702.846-2.002 4.914-1.766 5.528.191.498.584.217 1.746-1.245 2.003-2.521 8.628-4.444 10.13-2.942 1.619 1.619.225 24.854-1.49 24.854-1.161 0-2.806.835-2.282 1.159.4.248 10.933.333 12.166.098.822-.156.135-.799-1.103-1.031-2.576-.483-2.622-.735-2.503-13.665L167 195.8l2.701-.118c3.048-.134 5.105.595 6.223 2.204a31.499 31.499 0 0 0 1.592 2.043l.916 1.071-.195-2c-.107-1.1-.308-2.63-.448-3.4l-.253-1.4h-12.602c-8.014 0-12.724.147-12.938.405m33.01-.299c-4.45.125-6.121.603-3.964 1.135 1.935.478 3.669 2.106 5.651 5.308 1.038 1.678 2.117 3.289 2.397 3.58.281.29.51.77.51 1.066 0 .296.153.598.34.672 1.931.756 3.622 11.243 2.154 13.356-.57.821-2.283 1.777-3.183 1.777-.94 0-1.301.754-.411.859 6.282.735 15.231-.21 10.4-1.099-2.062-.379-2.09-.466-2.071-6.56l.016-5.4 2.57-3.6c1.413-1.98 2.941-4.282 3.394-5.117 1.225-2.253 3.669-4.519 5.208-4.826 2.945-.589.476-1.298-3.722-1.07-3.707.202-5.057.752-3.019 1.229 1.83.429 1.212 2.364-2.476 7.746-.33.482-1.017 1.532-1.526 2.334-1.218 1.918-1.632 1.699-4.225-2.24-4.065-6.178-4.393-7.375-2.209-8.069 2.332-.74-.341-1.235-5.834-1.081m89.694-.007c-4.697.115-6.075.441-4.467 1.058.348.134.959.243 1.358.243.399 0 1.267.616 1.928 1.369 1.391 1.584 5.613 7.88 6.325 9.431.151.33.653 1.02 1.116 1.532.766.85.84 1.408.84 6.328 0 5.911.073 5.728-2.694 6.74-2.328.851-.847 1.2 5.094 1.2 6.013 0 7.365-.362 4.486-1.2-2.59-.754-2.686-.983-2.686-6.384v-4.886l1.6-2.234c.88-1.229 1.6-2.352 1.6-2.495 0-.143.99-1.576 2.2-3.184 1.21-1.607 2.2-3.037 2.2-3.176 0-.547 2.672-2.643 3.904-3.062 2.252-.766 1.006-1.179-3.561-1.179-4.062 0-6.119.696-3.298 1.117 2.029.302 1.902 1.507-.536 5.108-1.27 1.875-2.489 3.718-2.709 4.095-.22.378-.71 1.122-1.088 1.655l-.688.968-.916-.988c-.504-.544-1.724-2.299-2.712-3.9a983.572 983.572 0 0 0-2.467-3.983c-1.027-1.642-.893-2.456.484-2.936.974-.34 1.122-.533.751-.98-.254-.306-.575-.517-.713-.469-.138.048-2.546.143-5.351.212m52.761.231c-.288.207-.311.397-.061.507 3.385 1.487 3.36 1.386 3.386 13.523.024 10.784-.218 12.24-2.03 12.24-1.043 0-2.513.904-1.864 1.147.544.202 19.401.29 21.376.098.258-.025.594-.63.747-1.345.153-.715.618-2.009 1.032-2.875 1.262-2.64.906-2.941-1.147-.971-3.415 3.278-4.543 3.746-9.032 3.746-5.191 0-5.126.089-4.979-6.791L335 208.6l3.159-.118c3.529-.132 5.26.832 5.52 3.072.327 2.825.921.406.921-3.754 0-4.374-.534-6.29-1.001-3.592-.347 2.004-2.42 3.046-5.782 2.908L335 207v-5.039c0-6.307.035-6.361 4.103-6.361 3.712 0 5.729.575 6.823 1.946.463.58 1.193 1.504 1.623 2.054.43.55.91.873 1.066.718.382-.381-1.042-5.554-1.585-5.759-.859-.323-19.121-.35-19.569-.029m-25.643.24c-.133.216.48.587 1.363.825 2.437.656 2.469.827 2.337 12.772-.132 12.01-.15 12.087-2.97 12.616-.824.155-1.334.459-1.24.74.118.354 2.934.475 10.909.469l10.751-.008.695-1.942c1.483-4.145.813-7.072-.891-3.894-1.615 3.012-3.62 4.29-7.022 4.477-6.381.349-6.152.817-6.141-12.541.01-11.826.121-12.442 2.307-12.753.504-.072.909-.311.901-.531-.02-.535-10.672-.758-10.999-.23m-248.191 1.509c3.187 1.883 2.483 8.33-1.044 9.558-1.775.618-4.506.726-5.319.211-.804-.51-.503-9.528.336-10.057 1.005-.635 4.769-.454 6.027.288m51.573 6.804c0 .546.257 1.471.572 2.055.821 1.525 1.455 3.695 1.2 4.108-.293.474-6.572.456-6.572-.019 0-.328 1.435-4.348 2.794-7.827l.468-1.2.769.944c.423.52.769 1.392.769 1.939m-50.118 5.84c3.104 2.102 3.256 8.489.247 10.386-.269.17-.724.543-1.011.83-1.41 1.41-5.75 1.008-6.903-.639-.961-1.373-.891-10.89.085-11.492 1.139-.701 6.076-.106 7.582.915m-3.414 29.195c-.288.347-.469 6.496-.549 18.7L51 275l-1.352 2.694c-3.044 6.066-7.154 8.445-14.738 8.531-5.66.064-6.51.327-6.51 2.015 0 2.089-1.408 2.026 43.6 1.955 43.339-.069 45.081-.126 54.6-1.806 8.795-1.551 17.737-4.824 23.078-8.445 1.253-.849 2.356-1.544 2.451-1.544 1.111 0 8.464-8.795 9.865-11.8 3.94-8.447 5.206-14.123 5.206-23.337 0-6.178 1.25-5.663-13.741-5.663-15.008 0-13.459-.619-13.459 5.379 0 6.536-1.315 16.459-2.387 18.021-.152.22-.598 1.3-.992 2.4-3.561 9.932-11.568 16.288-24.021 19.065-6.087 1.357-23.947.543-28.802-1.313-7.9-3.021-8.532-5.128-8.573-28.605l-.025-14.454-.9-.241c-1.925-.516-22.181-.278-22.632.266m154.563.108c-.564.564-.625 10.111-.625 97V431.6h3.594v-96.52c0-74.538-.109-96.629-.48-97-.663-.663-1.743-.6-2.489.146m38.075-.126c-.576.445-.602 1.092-.239 5.9.227 3.02.324 11.866.219 20.071-.238 18.52-.489 17.94 6.781 15.674 6.052-1.887 9.305-1.457 14.917 1.971 12.141 7.416 21.753 10.284 34.47 10.284 4.169 0 12.743-.917 14.746-1.578.55-.181 1.81-.551 2.8-.823 24.22-6.643 38.383-24.13 37.679-46.522-.186-5.915.849-5.477-12.931-5.477-13.02 0-12.87-.043-10.783 3.103 5.806 8.753 6.725 16.061 3.007 23.92-.535 1.13-.972 2.171-.972 2.315 0 .707-3.05 4.339-5.51 6.561-12.09 10.92-30.362 14.436-44.141 8.492-15.041-6.488-31.841-26.57-34.138-40.806-.54-3.351-3.536-4.916-5.905-3.085"/></g></svg>