<svg xmlns="http://www.w3.org/2000/svg" width="49.333" height="53.333" version="1.0" viewBox="0 0 37 40"><path d="M11.2 12.3C5.6 17.9 1 23.2 1 24c0 2 11.1 13 13 13 1.9 0 22-20 22-21.8C36 13.2 25 2 23.1 2c-.9 0-6.2 4.6-11.9 10.3zM29 9.5l5.5 5.5-10.3 10.3L14 35.5l-5.7-5.8L2.5 24l10-10C18 8.5 22.7 4 23 4c.3 0 3 2.5 6 5.5z"/><path d="M25 13.6c-1.1 1.2-1 1.8.3 3.2 1.6 1.5 1.8 1.5 3.4 0 1.3-1.4 1.4-2 .3-3.2-.7-.9-1.6-1.6-2-1.6-.4 0-1.3.7-2 1.6zm3 1.4c0 .5-.4 1-1 1-.5 0-1-.5-1-1 0-.6.5-1 1-1 .6 0 1 .4 1 1zm1.2 13.5c-6 9.5-6.7 10.2-8.8 8.4-.8-.6-1.7-.9-2.1-.5-.8.7 2.6 3.5 4.3 3.6C23.7 40 36 22.1 36 20.6c0-2-2.2.5-6.8 7.9zm3.7 2.7c-1.1 4-1.9 5.2-3.2 5-.9-.2-1.7.2-1.7.8 0 .5 1.1 1 2.5 1 2 0 2.6-.7 3.5-4.3.6-2.3 1.3-5 1.6-6 .3-.9.1-1.7-.4-1.7s-1.6 2.4-2.3 5.2z"/></svg>