<svg xmlns="http://www.w3.org/2000/svg" width="112" height="144" version="1.0" viewBox="0 0 84 108"><path d="M69.2 3.7c-1.2 1-4 6.1-6.2 11.3-3.3 7.5-5.2 10.5-9.3 14.2L48.6 34H28.9c-18 0-19.7.2-21.3 1.9-1.4 1.5-1.5 2.4-.7 3.9 1.3 2.5 3.2 3.2 8.6 3.2 5 0 8.8 2.6 13.5 9.6 2.9 4.2 3 4.3 1.1 5.4-1.1.5-6.5 1-12 1-9.2 0-10.2.2-13 2.6C2.7 63.6 2 65 2 67.9c0 4.9 3.3 8.1 9.2 8.8 2.7.4 5.5 1.6 7.5 3.4 1.7 1.5 4.5 3 6.1 3.3 2 .5 3.4 1.8 4.5 4.2 1 1.9 1.7 3.6 1.7 3.8 0 .2-1.6.7-3.5 1-2.1.4-4.1 1.7-5.1 3.1C21 97.7 20 98 15 98c-7.6 0-11 2.4-9.2 6.4L7 107h29.3c30.3 0 31.7-.2 31.7-4.1 0-3.4-2.8-4.9-9.3-4.9-5.4 0-6.4-.3-8.2-2.6-1.1-1.4-3.4-2.9-5.2-3.2l-3.1-.7 1.5-3.6c1.1-2.8 2.2-3.8 4.5-4.3 1.9-.4 5.4-3 9.4-7l6.4-6.4v-7.9c0-5.4-.5-8.5-1.5-10-2-2.9-.9-5.3 2.4-5.3 1.5 0 3.4-.6 4.3-1.3C71.1 44.3 84 12.9 84 9.8c0-1.1-1.3-3.3-2.9-4.9-3.4-3.4-8.7-3.9-11.9-1.2zm10 2c2.9 2.6 2.2 6.3-4.3 22.5C69 43 67.9 45 65.3 45c-2.2 0-1.4-2 1.2-3 1.7-.6 2.5-1.7 2.5-3.3 0-3.7-1.9-4.7-9.2-4.7-3.7 0-6.8-.4-6.8-.8 0-.5 1.7-2.2 3.8-3.9 2.8-2.3 4.8-5.4 8-12.8 2.4-5.4 5.1-10.4 6-11.1 2.4-1.8 6.2-1.7 8.4.3zm-13.5 31c.7.3 1.3 1.1 1.3 1.9 0 1.2-4.9 1.4-29 1.4-23.5 0-29-.3-29-1.3 0-.8.3-1.7.7-2.1.8-.8 53.9-.7 56 .1zm-28.5 9.6c6.5 7.5 10.1 13.5 9.4 16.1-.7 2.9-3.7 4.1-6.6 2.6-1.1-.6-3.3-3.6-4.9-6.8-1.6-3.1-4.7-7.8-7-10.3-2.2-2.6-3.7-4.9-3.4-5.3.4-.4 2.7-.4 5.2 0 3.5.4 5.3 1.4 7.3 3.7zm12.6-1.5c3.3 3.3 2.5 5.6-1.9 6-3.1.3-4.1-.2-6.8-3.3-4.2-4.9-4-5.7 1.7-5.3 3.3.3 5.5 1.1 7 2.6zm3.7-1.8c.3.5-.1 1-1 1s-1.3-.5-1-1c.3-.6.8-1 1-1 .2 0 .7.4 1 1zm7.5.5c0 3-3 7.5-5 7.5-2.4 0-2.5-1.1-.5-5 2-3.8 5.5-5.4 5.5-2.5zm-.2 10.7c.7.7 1.2 4.1 1.2 8 0 6-.3 7.2-2.5 9.3L57.1 74h-25c-24.7 0-25 0-26.5-2.2-2.2-3.1-2-6.1.5-8.4 1.7-1.5 4.3-2 14.7-2.5 7-.3 13-.4 13.5-.2.4.2.7 1 .7 1.8 0 2 4.9 5.5 7.6 5.5 5.3 0 8.3-7.1 4.9-11.6-.8-1-1.5-2.2-1.5-2.7 0-1.2 13.5-.8 14.8.5zm-7.1 23.2c.3.2-.8 1.3-2.3 2.3-4.1 2.6-25.7 2.7-29.7 0-1.5-.9-2.7-2.1-2.7-2.5 0-.7 34-.6 34.7.2zM41.5 87.6c-.8 2-1.5 3.8-1.5 4 0 .2-1.5.4-3.3.4-2.8 0-3.5-.5-4.5-3.3-.7-1.8-1.2-3.6-1.2-4 0-.4 2.7-.7 6-.7h6l-1.5 3.6zm5.6 7.4c4.2 2.3 1.6 3-10.6 3-12.3 0-15.4-.9-10.2-3 3.1-1.2 18.4-1.2 20.8 0zm18.4 8c0 1.3-3.9 1.5-28.4 1.8-16.6.1-28.9-.2-29.4-.7-2.8-2.8 1-3.1 29.1-2.9 24.7.3 28.7.5 28.7 1.8z"/></svg>