<svg aria-hidden="true" xmlns="http://www.w3.org/2000/svg"><defs><symbol id="booksy" viewBox="0 0 719 719"><path d="m354.3 127.4-2.8 2.4v138.4c0 134.4.1 138.4 1.9 140.8 1 1.4 4.9 4.7 8.5 7.5 7.5 5.6 26.6 18.5 27.4 18.5.4 0 2.9 1.3 5.7 3 3.3 1.9 6.5 3 9 3 3.3 0 4.1-.5 6.1-3.7 2.2-3.5 2.3-4.6 2.4-27.5.1-16.8.5-24.2 1.3-25 .7-.7 1.2-2 1.2-3 0-5.8 11.6-30 17.2-35.9.7-.8 2.6-3.3 4.1-5.6 3.4-5 20.9-20.3 23.2-20.3.4 0 3-1.3 5.6-3 2.7-1.6 6.1-3.3 7.6-3.6 1.6-.4 3.7-1.3 4.8-2 1.1-.8 3.3-1.4 5-1.4 1.7 0 3.6-.5 4.2-1.1 1.5-1.5 18.4-2.9 26.8-2.3 15.3 1.1 26.4 4.8 42 13.9 13.2 7.6 30.1 26.8 37 42 5.1 11.3 5.5 12.3 5.5 13.8 0 .9.4 1.8.9 2.2.6.3 1.3 2.7 1.6 5.3.4 2.6 1.3 7.2 2.1 10.3 2.1 8.4 1.8 29.9-.5 44.1-2.1 12.3-3.8 18.3-7.3 25.8-8.2 17.3-28.1 36.9-46 45.4-3.2 1.5-6 3.1-6.3 3.7-.4.5-1.3.9-2.2.9-.8 0-2.9.6-4.6 1.4-13.6 6-38.7 9-55.7 6.6-12.5-1.7-27.1-4.7-31.3-6.5-2-.8-4.7-1.5-5.9-1.5-1.3 0-3.2-.7-4.2-1.5-1.1-.8-2.8-1.5-3.7-1.5-1 0-3-.7-4.6-1.5-3-1.5-14.2-6.7-18.3-8.5-1.4-.5-4.1-2-6-3.1-1.9-1.2-5.7-3.3-8.3-4.8-7.7-4.2-13.1-7.5-25.5-16-4.6-3.1-9.4-6.3-10.6-7.1-10.6-6.9-16.6-11.3-16.6-12.1 0-.5-.5-.9-1-.9-.6 0-16-11.4-34.3-25.3-32.7-24.9-43.4-32.1-57.2-38.7-3.8-1.8-8.1-3.8-9.5-4.5-1.4-.7-4-1.6-5.8-2-1.8-.4-4.5-1.3-6-2.1s-3.5-1.4-4.5-1.4c-.9 0-4.3-.6-7.5-1.4-17.8-4.5-39.5-4.6-60.7-.5-2.7.6-7 1.4-9.5 1.9-7.7 1.4-19.6 5.7-33 11.8-27.3 12.4-54.1 39.9-67.9 69.7-2.3 4.9-4.6 9.8-5.1 10.7-.6 1-1 4.4-1 7.7 0 6.8.9 8 7.9 9.8 6.2 1.6 49.9 1.7 55.3.1 3.7-1.1 9.8-7.1 9.8-9.6 0-1.3 6-10.5 9.7-15 7.9-9.6 19-18.8 26.8-22.1 11.3-4.8 14.8-5.5 29-5.5 11.7.1 15.2.4 21.5 2.4 4.1 1.2 7.9 2.7 8.5 3.1.5.5 1.5.9 2.3.9 1.5 0 9.1 3.2 13.7 5.8 14 7.7 19.3 11.1 30 18.7 5 3.5 11 7.6 13.5 9.1s7 4.6 10 6.9c3 2.3 8 5.9 11 8 3 2.1 5.9 4.2 6.5 4.7.5.4 8 6 16.5 12.4s16.5 12.3 17.7 13.2c2.7 2.1 3.5 2.7 15.4 10.6 5.3 3.5 12.8 8.2 16.5 10.5 9.2 5.6 9.7 5.9 11.4 6.5.8.4 2.9 1.5 4.5 2.6 1.7 1.1 4.1 2.5 5.5 3 1.4.6 4.8 2.2 7.5 3.4 2.8 1.3 7.5 3.4 10.5 4.6 3 1.1 6.8 2.8 8.3 3.6 1.6.8 3.5 1.4 4.4 1.4.8 0 2.9.7 4.6 1.5 1.8.8 7.5 2.5 12.7 3.9 5.2 1.4 11.1 3 13 3.6 1.9.5 5.2 1 7.3 1 2.2 0 6.6.7 9.8 1.5 4.8 1.3 10.5 1.5 28.7 1.2 12.5-.2 25.6-1 29.2-1.6 11.6-2.1 15.4-2.9 21.5-4.4 10.8-2.7 16.8-4.6 17.8-5.6.6-.6 1.9-1.1 2.8-1.1 1 0 3-.6 4.6-1.4 1.5-.8 6.6-3.3 11.3-5.6 18.3-9 37.2-24.6 52.5-43.5 4.1-5 7.5-9.5 7.5-9.8 0-.3 1.3-2.5 2.9-4.9 8.1-12 16.7-33.4 19.3-47.8.5-3 1.6-8 2.4-11.1 1.6-6.4 2-57.1.5-61.2-.5-1.4-1.5-6-2-10.3-.6-4.4-1.8-9.7-2.5-11.9-.8-2.2-2.4-7.3-3.6-11.3-1.3-4-2.7-7.5-3.1-7.8-.5-.3-.9-1.3-.9-2.3 0-1.9-9.4-20.7-11.6-23.2-.8-.8-1.4-1.9-1.4-2.3 0-.6-4.2-6.5-7.8-11.1-.4-.6-2.8-3.7-5.4-7-6.6-8.6-17-18.3-31.3-29.3-3-2.3-12.1-7.3-20-11.1-4.9-2.3-10.2-4.9-11.7-5.7-1.4-.8-3.5-1.4-4.6-1.4-1.1 0-3.3-.7-4.8-1.5-1.6-.8-4.1-1.5-5.6-1.5s-3.9-.5-5.5-1.1c-3.3-1.4-30.4-4.8-38.3-4.8-7.1-.1-32.2 3.4-34.9 4.8-1.1.6-2.7 1.1-3.5 1.1-2.4 0-25.7 9.4-29.6 12-6.3 4.1-17.4 10-18.8 10-4.7 0-4.7-.3-5-70-.3-72.9-.1-71.1-6.8-74.4-2.9-1.3-7.2-1.6-25.9-1.6-22.2 0-22.4 0-25.2 2.4z"/></symbol><symbol id="facebook" viewBox="0 0 320 512"><path d="M80 299.3V512h116V299.3h86.5l18-97.8H196v-34.6c0-51.7 20.3-71.5 72.7-71.5 16.3 0 29.4.4 37 1.2V7.9C291.4 4 256.4 0 236.2 0 129.3 0 80 50.5 80 159.4v42.1H14v97.8h66z"/></symbol><symbol id="instagram" viewBox="0 0 448 512"><path d="M224.1 141c-63.6 0-114.9 51.3-114.9 114.9s51.3 114.9 114.9 114.9S339 319.5 339 255.9 287.7 141 224.1 141zm0 189.6c-41.1 0-74.7-33.5-74.7-74.7s33.5-74.7 74.7-74.7 74.7 33.5 74.7 74.7-33.6 74.7-74.7 74.7zm146.4-194.3c0 14.9-12 26.8-26.8 26.8-14.9 0-26.8-12-26.8-26.8s12-26.8 26.8-26.8 26.8 12 26.8 26.8zm76.1 27.2c-1.7-35.9-9.9-67.7-36.2-93.9-26.2-26.2-58-34.4-93.9-36.2-37-2.1-147.9-2.1-184.9 0-35.8 1.7-67.6 9.9-93.9 36.1s-34.4 58-36.2 93.9c-2.1 37-2.1 147.9 0 184.9 1.7 35.9 9.9 67.7 36.2 93.9s58 34.4 93.9 36.2c37 2.1 147.9 2.1 184.9 0 35.9-1.7 67.7-9.9 93.9-36.2 26.2-26.2 34.4-58 36.2-93.9 2.1-37 2.1-147.8 0-184.8zM398.8 388c-7.8 19.6-22.9 34.7-42.6 42.6-29.5 11.7-99.5 9-132.1 9s-102.7 2.6-132.1-9c-19.6-7.8-34.7-22.9-42.6-42.6-11.7-29.5-9-99.5-9-132.1s-2.6-102.7 9-132.1c7.8-19.6 22.9-34.7 42.6-42.6 29.5-11.7 99.5-9 132.1-9s102.7-2.6 132.1 9c19.6 7.8 34.7 22.9 42.6 42.6 11.7 29.5 9 99.5 9 132.1s2.7 102.7-9 132.1z"/></symbol><symbol id="telegram" viewBox="0 0 295 257"><path d="M131 73.5c-71.1 27.3-103 40.1-104.2 41.6-2.1 2.5-2.3 5.8-.5 8.3.8 1.1 11.8 5.4 28.2 11.1l26.9 9.2 6.5-4c67.3-41.2 115-70.1 116.4-70.5 1-.2 1.7.1 1.7.9s-20.2 20-44.8 42.6c-24.7 22.7-45.6 42-46.4 43-1.3 1.4-2 7.1-3.4 26-1.8 25.4-1.6 27.3 2.4 27.3.9 0 8.2-6.6 16.3-14.7l14.8-14.7 25.7 19.5c14.1 10.7 26.6 19.9 27.8 20.6 4.1 2.4 10 1 12.5-2.8 2.1-3.5 38.3-169.9 37.7-173.4-.4-1.7-1.9-4.4-3.5-5.9-6.2-5.9-1.5-7.4-114.1 35.9z"/><symbol id="whatsapp" viewBox="0 0 448 512"><path d="M380.9 97.1C339 55.1 283.2 32 223.9 32c-122.4 0-222 99.6-222 222 0 39.1 10.2 77.3 29.6 111L0 480l117.7-30.9c32.4 17.7 68.9 27 106.1 27h.1c122.3 0 224.1-99.6 224.1-222 0-59.3-25.2-115-67.1-157zm-157 341.6c-33.2 0-65.7-8.9-94-25.7l-6.7-4-69.8 18.3L72 359.2l-4.4-7c-18.5-29.4-28.2-63.3-28.2-98.2 0-101.7 82.8-184.5 184.6-184.5 49.3 0 95.6 19.2 130.4 54.1 34.8 34.9 56.2 81.2 56.1 130.5 0 101.8-84.9 184.6-186.6 184.6zm101.2-138.2c-5.5-2.8-32.8-16.2-37.9-18-5.1-1.9-8.8-2.8-12.5 2.8-3.7 5.6-14.3 18-17.6 21.8-3.2 3.7-6.5 4.2-12 1.4-32.6-16.3-54-29.1-75.5-66-5.7-9.8 5.7-9.1 16.3-30.3 1.8-3.7.9-6.9-.5-9.7-1.4-2.8-12.5-30.1-17.1-41.2-4.5-10.8-9.1-9.3-12.5-9.5-3.2-.2-6.9-.2-10.6-.2-3.7 0-9.7 1.4-14.8 6.9-5.1 5.6-19.4 19-19.4 46.3 0 27.3 19.9 53.7 22.6 57.4 2.8 3.7 39.1 59.7 94.8 83.8 35.2 15.2 49 16.5 66.6 13.9 10.7-1.6 32.8-13.4 37.4-26.4 4.6-13 4.6-24.1 3.2-26.4-1.3-2.5-5-3.9-10.5-6.6z"/></symbol><symbol id="chevron-up" viewBox="0 0 512 512"><path d="M233.4 105.4c12.5-12.5 32.8-12.5 45.3 0l192 192c12.5 12.5 12.5 32.8 0 45.3s-32.8 12.5-45.3 0L256 173.3 86.6 342.6c-12.5 12.5-32.8 12.5-45.3 0s-12.5-32.8 0-45.3l192-192z"/><symbol id="call" viewBox="0 0 24 24"><path d="M16.15 0a3.013 3.013 0 0 1 3.008 2.836l.005.177v17.974a3.013 3.013 0 0 1-2.835 3.008L16.15 24H7.013a3.013 3.013 0 0 1-3.008-2.836L4 20.987V3.013A3.013 3.013 0 0 1 6.836.005L7.013 0h9.138zm0 1.506H7.014c-.786 0-1.431.602-1.5 1.37l-.007.137v17.974c0 .786.602 1.431 1.37 1.5l.137.007h9.138c.785 0 1.43-.602 1.5-1.37l.006-.137V3.013c0-.786-.602-1.431-1.37-1.5l-.136-.007zM11.583 19.28a1.155 1.155 0 1 1 0 2.31 1.155 1.155 0 0 1 0-2.31zm1.205-16.87a.753.753 0 0 1 .102 1.5l-.102.006h-2.41a.753.753 0 0 1-.103-1.5l.103-.006h2.41z"/></symbol></symbol></symbol></defs></svg>