<svg xmlns="http://www.w3.org/2000/svg" width="958.667" height="958.667" version="1.0" viewBox="0 0 719 719">
  <path d="m354.3 127.4-2.8 2.4v138.4c0 134.4.1 138.4 1.9 140.8 1 1.4 4.9 4.7 8.5 7.5 7.5 5.6 26.6 18.5 27.4 18.5.4 0 2.9 1.3 5.7 3 3.3 1.9 6.5 3 9 3 3.3 0 4.1-.5 6.1-3.7 2.2-3.5 2.3-4.6 2.4-27.5.1-16.8.5-24.2 1.3-25 .7-.7 1.2-2 1.2-3 0-5.8 11.6-30 17.2-35.9.7-.8 2.6-3.3 4.1-5.6 3.4-5 20.9-20.3 23.2-20.3.4 0 3-1.3 5.6-3 2.7-1.6 6.1-3.3 7.6-3.6 1.6-.4 3.7-1.3 4.8-2 1.1-.8 3.3-1.4 5-1.4 1.7 0 3.6-.5 4.2-1.1 1.5-1.5 18.4-2.9 26.8-2.3 15.3 1.1 26.4 4.8 42 13.9 13.2 7.6 30.1 26.8 37 42 5.1 11.3 5.5 12.3 5.5 13.8 0 .9.4 1.8.9 2.2.6.3 1.3 2.7 1.6 5.3.4 2.6 1.3 7.2 2.1 10.3 2.1 8.4 1.8 29.9-.5 44.1-2.1 12.3-3.8 18.3-7.3 25.8-8.2 17.3-28.1 36.9-46 45.4-3.2 1.5-6 3.1-6.3 3.7-.4.5-1.3.9-2.2.9-.8 0-2.9.6-4.6 1.4-13.6 6-38.7 9-55.7 6.6-12.5-1.7-27.1-4.7-31.3-6.5-2-.8-4.7-1.5-5.9-1.5-1.3 0-3.2-.7-4.2-1.5-1.1-.8-2.8-1.5-3.7-1.5-1 0-3-.7-4.6-1.5-3-1.5-14.2-6.7-18.3-8.5-1.4-.5-4.1-2-6-3.1-1.9-1.2-5.7-3.3-8.3-4.8-7.7-4.2-13.1-7.5-25.5-16-4.6-3.1-9.4-6.3-10.6-7.1-10.6-6.9-16.6-11.3-16.6-12.1 0-.5-.5-.9-1-.9-.6 0-16-11.4-34.3-25.3-32.7-24.9-43.4-32.1-57.2-38.7-3.8-1.8-8.1-3.8-9.5-4.5-1.4-.7-4-1.6-5.8-2-1.8-.4-4.5-1.3-6-2.1s-3.5-1.4-4.5-1.4c-.9 0-4.3-.6-7.5-1.4-17.8-4.5-39.5-4.6-60.7-.5-2.7.6-7 1.4-9.5 1.9-7.7 1.4-19.6 5.7-33 11.8-27.3 12.4-54.1 39.9-67.9 69.7-2.3 4.9-4.6 9.8-5.1 10.7-.6 1-1 4.4-1 7.7 0 6.8.9 8 7.9 9.8 6.2 1.6 49.9 1.7 55.3.1 3.7-1.1 9.8-7.1 9.8-9.6 0-1.3 6-10.5 9.7-15 7.9-9.6 19-18.8 26.8-22.1 11.3-4.8 14.8-5.5 29-5.5 11.7.1 15.2.4 21.5 2.4 4.1 1.2 7.9 2.7 8.5 3.1.5.5 1.5.9 2.3.9 1.5 0 9.1 3.2 13.7 5.8 14 7.7 19.3 11.1 30 18.7 5 3.5 11 7.6 13.5 9.1s7 4.6 10 6.9c3 2.3 8 5.9 11 8 3 2.1 5.9 4.2 6.5 4.7.5.4 8 6 16.5 12.4s16.5 12.3 17.7 13.2c2.7 2.1 3.5 2.7 15.4 10.6 5.3 3.5 12.8 8.2 16.5 10.5 9.2 5.6 9.7 5.9 11.4 6.5.8.4 2.9 1.5 4.5 2.6 1.7 1.1 4.1 2.5 5.5 3 1.4.6 4.8 2.2 7.5 3.4 2.8 1.3 7.5 3.4 10.5 4.6 3 1.1 6.8 2.8 8.3 3.6 1.6.8 3.5 1.4 4.4 1.4.8 0 2.9.7 4.6 1.5 1.8.8 7.5 2.5 12.7 3.9 5.2 1.4 11.1 3 13 3.6 1.9.5 5.2 1 7.3 1 2.2 0 6.6.7 9.8 1.5 4.8 1.3 10.5 1.5 28.7 1.2 12.5-.2 25.6-1 29.2-1.6 11.6-2.1 15.4-2.9 21.5-4.4 10.8-2.7 16.8-4.6 17.8-5.6.6-.6 1.9-1.1 2.8-1.1 1 0 3-.6 4.6-1.4 1.5-.8 6.6-3.3 11.3-5.6 18.3-9 37.2-24.6 52.5-43.5 4.1-5 7.5-9.5 7.5-9.8 0-.3 1.3-2.5 2.9-4.9 8.1-12 16.7-33.4 19.3-47.8.5-3 1.6-8 2.4-11.1 1.6-6.4 2-57.1.5-61.2-.5-1.4-1.5-6-2-10.3-.6-4.4-1.8-9.7-2.5-11.9-.8-2.2-2.4-7.3-3.6-11.3-1.3-4-2.7-7.5-3.1-7.8-.5-.3-.9-1.3-.9-2.3 0-1.9-9.4-20.7-11.6-23.2-.8-.8-1.4-1.9-1.4-2.3 0-.6-4.2-6.5-7.8-11.1-.4-.6-2.8-3.7-5.4-7-6.6-8.6-17-18.3-31.3-29.3-3-2.3-12.1-7.3-20-11.1-4.9-2.3-10.2-4.9-11.7-5.7-1.4-.8-3.5-1.4-4.6-1.4-1.1 0-3.3-.7-4.8-1.5-1.6-.8-4.1-1.5-5.6-1.5s-3.9-.5-5.5-1.1c-3.3-1.4-30.4-4.8-38.3-4.8-7.1-.1-32.2 3.4-34.9 4.8-1.1.6-2.7 1.1-3.5 1.1-2.4 0-25.7 9.4-29.6 12-6.3 4.1-17.4 10-18.8 10-4.7 0-4.7-.3-5-70-.3-72.9-.1-71.1-6.8-74.4-2.9-1.3-7.2-1.6-25.9-1.6-22.2 0-22.4 0-25.2 2.4z"/>
</svg>
