<svg xmlns="http://www.w3.org/2000/svg" width="221.333" height="220" version="1.0" viewBox="0 0 166 165">
  <path d="M25.5 7.1C9.2 11.6 7.3 12.5 4.8 16.5 3.1 19.2 2.9 20.9 3.4 32 5.7 86.8 43 136.1 96.8 155.4c16.4 5.8 44.8 9.4 50.7 6.3 5.1-2.6 6.3-4.8 10.5-19.9 7.3-26.1 7.3-26.1-18.9-36.9-20.8-8.5-22.2-8.6-29.1-1.2-2.5 2.7-6.3 7-8.5 9.6l-4 4.8-8.3-4.8c-16.1-9.4-30.3-24-38.7-39.8l-3-5.7 4.5-3.6c2.5-2 6.9-6 9.9-8.9l5.4-5.2-.5-5.3c-.4-3.5-2.8-10.7-7.4-21.3C53.6 10.1 52 7.2 49.1 5.3c-4.5-3-7-2.8-23.6 1.8zm21.4 2.6c1.9 1.6 12.8 25.9 15.2 33.6 1.2 4.3-.5 6.8-10.2 14.7-6.3 5-8.9 7.8-8.9 9.3 0 2.9 7 15.5 12.4 22.6 6 7.7 16.1 17.5 23.8 22.8 7 5 17 10.3 19.2 10.3.8 0 4.5-3.7 8.2-8.3 8-9.6 10.2-11.6 13-11.7 2.6 0 33.3 12.7 35.7 14.8 2.6 2.3 2.1 7.2-2.2 22.7-5.1 18-5 18-18.8 17.1C72.2 153.9 20.1 107.4 9.6 46.5c-2.2-12.7-2.1-26.7.2-28.7 1.7-1.6 28.8-9.5 32.8-9.7 1.2-.1 3.1.7 4.3 1.6z"/>
  <path d="M128.4 33.7C108.5 54 98.1 64 97.6 63.2c-.4-.7-.6-9.6-.5-19.7.3-13.5 0-18.8-.9-19.7-2.8-2.8-3.2.9-3 24.8l.3 23.9h24c23.3 0 24-.1 24-2s-.8-2-20.4-2.3l-20.3-.2L132 37.2c24.3-23.9 31-31.1 30.5-32.5-.4-.9-1.5-1.7-2.4-1.7-.9 0-15.1 13.8-31.7 30.7z"/>
</svg>
