<svg xmlns="http://www.w3.org/2000/svg" width="72" height="117.333" version="1.0" viewBox="0 0 54 88">
  <path d="M15.4 2.4c-4 1.8-4.4 3-4.4 12.7V23l-4.2.1c-2.4.1-4.6.1-5 0-.5 0-.8.5-.9 1.2 0 .6-.2 2.5-.4 4.1-.3 2.1.1 2.9 1.6 3.3 1.7.5 1.9 1.5 1.9 9.8C4 53.1 4.8 54 14.3 54H21v22.8L18.1 78c-2.9 1.2-6 6.4-4.7 7.8.4.4 6.6.8 13.8.8 10.5.1 13.1-.1 13.5-1.3.7-1.8-2.6-6.4-5.8-8-1.3-.7-2.4-1.7-2.3-2.3.1-.5.2-1.5.3-2 0-.6 1.9-1 4.2-1h4l-.3-3.7c-.3-3.6-.5-3.8-3.6-3.8-3.9 0-5.3-1.9-4.9-6.7l.2-3.3 7-.3C49.4 53.8 50 53 50 41.3c0-7.6.3-9.3 1.5-9.3 1.1 0 1.5-1.1 1.5-4 0-4.3.1-4.2-6.7-4.4H43v-8.2c0-9.7-.4-11.1-3.9-12.8-3.7-1.8-19.8-2-23.7-.2zm5.4 9.4.3 8.2H33v-8c0-9 1.1-10.5 5.5-7.6L41 6v35H13V23.6c0-17 .1-17.5 2.3-19.1 4.2-3 5.2-1.7 5.5 7.3zM31 10.6v7.5l-4.2-.3-4.3-.3-.3-5.9C21.8 3.7 22.2 3 27 3h4v7.6zM9.8 25.9c.8.1 1.2 2.3 1.2 7.6 0 7.3-.1 7.5-2.4 7.5s-2.5-.4-2.8-5.3c-.2-3.8-.7-5.2-1.8-5.2-1.8 0-2.6-3.5-1-4.5.6-.4 2.1-.6 3.3-.5 1.2.1 2.8.3 3.5.4zm42 1.7c.2 1.5-.3 2.3-1.7 2.7-1.8.4-2.1 1.3-2.1 5.6 0 4.8-.2 5.1-2.5 5.1-2.5 0-2.5-.2-2.5-7.8v-7.7h4.3c3.5 0 4.2.3 4.5 2.1zM48 44.7V47H27c-19.7 0-21-.1-21-1.8 0-1 .2-2.1.4-2.3.3-.2 9.7-.4 21-.4H48v2.2zm-.6 5.8c-.9 2.2-38.5 2.2-40.4 0C5.9 49.2 8.2 49 26.8 49c18.4 0 21.1.2 20.6 1.5zM30.8 65.7l.3 11.3H23V66.2c0-6 .3-11.2.7-11.6.4-.4 2.1-.6 3.8-.4l3 .3.3 11.2zm8 2.6c.3 1.3-.4 1.7-3.2 1.7-3.8 0-3.9-.1-3.1-2.2.8-2 5.9-1.5 6.3.5zm-1.7 12.8c1.1 1.1 1.8 2.3 1.5 2.6-.5.6-22.8.4-23.4-.2-.2-.2.6-1.3 1.7-2.4C18.7 79.3 20.2 79 27 79s8.3.3 10.1 2.1z"/>
</svg>
