<svg xmlns="http://www.w3.org/2000/svg" width="393.333" height="342.667" version="1.0" viewBox="0 0 295 257">
  <path d="M131 73.5c-71.1 27.3-103 40.1-104.2 41.6-2.1 2.5-2.3 5.8-.5 8.3.8 1.1 11.8 5.4 28.2 11.1l26.9 9.2 6.5-4c67.3-41.2 115-70.1 116.4-70.5 1-.2 1.7.1 1.7.9s-20.2 20-44.8 42.6c-24.7 22.7-45.6 42-46.4 43-1.3 1.4-2 7.1-3.4 26-1.8 25.4-1.6 27.3 2.4 27.3.9 0 8.2-6.6 16.3-14.7l14.8-14.7 25.7 19.5c14.1 10.7 26.6 19.9 27.8 20.6 4.1 2.4 10 1 12.5-2.8 2.1-3.5 38.3-169.9 37.7-173.4-.4-1.7-1.9-4.4-3.5-5.9-6.2-5.9-1.5-7.4-114.1 35.9z"/>
</svg>
