<svg xmlns="http://www.w3.org/2000/svg" width="44" height="52" version="1.0" viewBox="0 0 33 39">
  <path d="M11.5 3C8.4 4.2 7.3 6 4.7 13.6c-1.3 3.8-2.7 7.6-3.1 8.5-.6 1.3 0 1.8 2.9 2.3 2 .4 4.3 1 5.1 1.3.8.3 1.4 0 1.4-.5 0-.6-1.6-1.4-3.5-1.8-1.9-.3-3.5-.8-3.5-1.1C4 20 8.7 7.3 10 6c2.4-2.4 11.6-2.4 14 0 1.3 1.3 6 14 6 16.3 0 .3-1.6.8-3.5 1.1-1.9.4-3.5 1.2-3.5 1.8 0 .6.7.7 1.8.3.9-.4 3.2-.9 5-1.2 2.6-.5 3.1-.9 2.6-2.2-.4-.9-1.8-4.8-3.1-8.6-1.3-3.9-3.2-7.8-4.2-8.9-2-2-10.2-3-13.6-1.6z"/>
  <path d="M15.5 9c-.3.5-1.7 1-3 1-4 0-4.6 4.2-1.3 10.8 2.5 5.3 1.8 7.2-3.1 8.6-3.3.9-5.3 3.2-6.6 7.3L.9 39h32.2l-.6-2.3c-1.3-4.1-3.3-6.4-6.6-7.3-4.9-1.4-5.6-3.3-3.1-8.6 3.3-6.6 2.7-10.8-1.3-10.8-1.3 0-2.7-.5-3-1-.3-.6-1-1-1.5-1s-1.2.4-1.5 1zm5.9 2.8c1.5.4 1.7 1.2 1.3 4.4-.3 2.2-1.2 4.7-2.1 5.7-.9 1-1.6 2.5-1.6 3.4 0 1.7 4.5 5.7 6.6 5.7 1.3 0 5.4 4.6 5.4 6.1 0 .5-6.3.9-14 .9s-14-.4-14-.9C3 35.6 7.1 31 8.4 31c2.1 0 6.6-4 6.6-5.7 0-.9-.7-2.4-1.6-3.4-.9-1-1.8-3.5-2.1-5.6-.5-3.5-.3-3.9 2.3-5 1.6-.6 3.6-.9 4.4-.6.8.3 2.3.8 3.4 1.1z"/>
</svg>
